<svg xmlns="http://www.w3.org/2000/svg" xmlns:xlink="http://www.w3.org/1999/xlink" width="500" zoomAndPan="magnify" viewBox="0 0 375 374.999991" height="500" preserveAspectRatio="xMidYMid meet" version="1.0"><defs><g/></defs><g fill="#f4f4f4" fill-opacity="1"><g transform="translate(83.170376, 197.702332)"><g><path d="M 16.777344 -4.507812 C 16.777344 -7.003906 14.746094 -9.039062 12.246094 -9.039062 L 6.515625 -9.039062 C 4.554688 -9.039062 2.964844 -10.628906 2.964844 -12.613281 C 2.964844 -14.574219 4.554688 -16.167969 6.515625 -16.167969 L 12.246094 -16.167969 C 14.207031 -16.167969 15.800781 -14.574219 15.800781 -12.613281 L 16.777344 -12.613281 C 16.777344 -15.113281 14.746094 -17.148438 12.246094 -17.148438 L 6.515625 -17.148438 C 4.015625 -17.148438 2.007812 -15.113281 2.007812 -12.613281 C 2.007812 -10.117188 4.015625 -8.082031 6.515625 -8.082031 L 12.246094 -8.082031 C 14.207031 -8.082031 15.800781 -6.492188 15.800781 -4.507812 C 15.800781 -2.546875 14.207031 -0.957031 12.246094 -0.957031 L 6.515625 -0.957031 C 4.554688 -0.957031 2.964844 -2.546875 2.964844 -4.507812 L 2.007812 -4.507812 C 2.007812 -2.007812 4.015625 0.0234375 6.515625 0.0234375 L 12.246094 0.0234375 C 14.746094 0.0234375 16.777344 -2.007812 16.777344 -4.507812 Z M 16.777344 -4.507812 "/></g></g></g><g fill="#f4f4f4" fill-opacity="1"><g transform="translate(102.98472, 197.702332)"><g><path d="M 2.007812 -17.148438 L 2.007812 0.0234375 L 2.964844 0.0234375 L 2.964844 -14.597656 L 10.261719 0.0234375 L 10.875 0.0234375 L 18.175781 -14.597656 L 18.175781 0.0234375 L 19.15625 0.0234375 L 19.15625 -17.148438 L 18.371094 -17.148438 L 10.582031 -1.566406 L 2.792969 -17.148438 Z M 2.007812 -17.148438 "/></g></g></g><g fill="#f4f4f4" fill-opacity="1"><g transform="translate(125.150309, 197.702332)"><g><path d="M 3.0625 0.0234375 L 4.628906 -3.675781 L 14.648438 -3.675781 L 16.214844 0.0234375 L 17.269531 0.0234375 L 9.945312 -17.148438 L 9.308594 -17.148438 L 2.007812 0.0234375 Z M 9.625 -15.40625 L 14.230469 -4.628906 L 5.019531 -4.628906 L 5.046875 -4.628906 Z M 9.625 -15.40625 "/></g></g></g><g fill="#f4f4f4" fill-opacity="1"><g transform="translate(145.454493, 197.702332)"><g><path d="M 16.777344 -12.613281 C 16.777344 -15.113281 14.746094 -17.148438 12.246094 -17.148438 L 2.007812 -17.148438 L 2.007812 0 L 2.964844 0 L 2.964844 -8.082031 L 9.160156 -8.082031 L 16.070312 0.0234375 L 17.34375 0.0234375 L 10.433594 -8.082031 L 12.246094 -8.082031 C 14.746094 -8.082031 16.777344 -10.117188 16.777344 -12.613281 Z M 2.964844 -16.167969 L 12.246094 -16.167969 C 14.207031 -16.167969 15.800781 -14.574219 15.800781 -12.613281 C 15.800781 -10.628906 14.207031 -9.039062 12.246094 -9.039062 L 2.964844 -9.039062 Z M 2.964844 -16.167969 "/></g></g></g><g fill="#f4f4f4" fill-opacity="1"><g transform="translate(165.832162, 197.702332)"><g><path d="M 8.890625 0.0234375 L 9.871094 0.0234375 L 9.871094 -16.167969 L 16.777344 -16.167969 L 16.777344 -17.148438 L 2.007812 -17.148438 L 2.007812 -16.167969 L 8.890625 -16.167969 Z M 8.890625 0.0234375 "/></g></g></g><g fill="#f4f4f4" fill-opacity="1"><g transform="translate(185.646501, 197.702332)"><g/></g></g><g fill="#f4f4f4" fill-opacity="1"><g transform="translate(195.247624, 197.702332)"><g><path d="M 16.777344 -4.507812 C 16.777344 -7.003906 14.746094 -9.039062 12.246094 -9.039062 L 6.515625 -9.039062 C 4.554688 -9.039062 2.964844 -10.628906 2.964844 -12.613281 C 2.964844 -14.574219 4.554688 -16.167969 6.515625 -16.167969 L 12.246094 -16.167969 C 14.207031 -16.167969 15.800781 -14.574219 15.800781 -12.613281 L 16.777344 -12.613281 C 16.777344 -15.113281 14.746094 -17.148438 12.246094 -17.148438 L 6.515625 -17.148438 C 4.015625 -17.148438 2.007812 -15.113281 2.007812 -12.613281 C 2.007812 -10.117188 4.015625 -8.082031 6.515625 -8.082031 L 12.246094 -8.082031 C 14.207031 -8.082031 15.800781 -6.492188 15.800781 -4.507812 C 15.800781 -2.546875 14.207031 -0.957031 12.246094 -0.957031 L 6.515625 -0.957031 C 4.554688 -0.957031 2.964844 -2.546875 2.964844 -4.507812 L 2.007812 -4.507812 C 2.007812 -2.007812 4.015625 0.0234375 6.515625 0.0234375 L 12.246094 0.0234375 C 14.746094 0.0234375 16.777344 -2.007812 16.777344 -4.507812 Z M 16.777344 -4.507812 "/></g></g></g><g fill="#f4f4f4" fill-opacity="1"><g transform="translate(215.061969, 197.702332)"><g><path d="M 2.007812 0 L 2.964844 0 L 2.964844 -8.082031 L 12.246094 -8.082031 C 14.746094 -8.082031 16.777344 -10.117188 16.777344 -12.613281 C 16.777344 -15.113281 14.746094 -17.148438 12.246094 -17.148438 L 2.007812 -17.148438 Z M 2.964844 -16.167969 L 12.246094 -16.167969 C 14.207031 -16.167969 15.800781 -14.574219 15.800781 -12.613281 C 15.800781 -10.628906 14.207031 -9.039062 12.246094 -9.039062 L 2.964844 -9.039062 Z M 2.964844 -16.167969 "/></g></g></g><g fill="#f4f4f4" fill-opacity="1"><g transform="translate(234.876314, 197.702332)"><g><path d="M 16.777344 -0.957031 L 2.964844 -0.957031 L 2.964844 -8.082031 L 11.878906 -8.082031 L 11.878906 -9.039062 L 2.964844 -9.039062 L 2.964844 -16.167969 L 16.777344 -16.167969 L 16.777344 -17.148438 L 2.007812 -17.148438 L 2.007812 0.0234375 L 16.777344 0.0234375 Z M 16.777344 -0.957031 "/></g></g></g><g fill="#f4f4f4" fill-opacity="1"><g transform="translate(254.690658, 197.702332)"><g><path d="M 2.964844 -15.332031 L 16.070312 0.0234375 L 16.777344 0.0234375 L 16.777344 -17.148438 L 15.800781 -17.148438 L 15.800781 -1.789062 L 2.695312 -17.148438 L 2.007812 -17.148438 L 2.007812 0.0234375 L 2.964844 0.0234375 Z M 2.964844 -15.332031 "/></g></g></g><g fill="#f4f4f4" fill-opacity="1"><g transform="translate(274.505003, 197.702332)"><g><path d="M 2.007812 -17.148438 L 2.007812 0 L 8.207031 0 C 12.933594 0 16.777344 -3.847656 16.777344 -8.574219 C 16.777344 -13.300781 12.933594 -17.148438 8.207031 -17.148438 Z M 15.800781 -8.574219 C 15.800781 -4.359375 12.394531 -0.957031 8.207031 -0.957031 L 2.964844 -0.957031 L 2.964844 -16.167969 L 8.207031 -16.167969 C 12.394531 -16.167969 15.800781 -12.761719 15.800781 -8.574219 Z M 15.800781 -8.574219 "/></g></g></g><path stroke-linecap="butt" transform="matrix(0.75, -0.000000000000000186, 0.000000000000000186, 0.75, 114.801369, 205.002627)" fill="none" stroke-linejoin="miter" d="M -0.000783615 2.001705 L 193.863812 2.001705 " stroke="#ffffff" stroke-width="4" stroke-opacity="1" stroke-miterlimit="4"/><g fill="#f4f4f4" fill-opacity="1"><g transform="translate(142.880854, 222.437577)"><g><path d="M 2.03125 0 L 2.03125 -0.703125 L 3.21875 -0.703125 L 3.21875 -2.90625 L 1.109375 -6.65625 L 0.109375 -6.65625 L 0.109375 -7.34375 L 3.375 -7.34375 L 3.375 -6.65625 L 2.265625 -6.65625 L 3.90625 -3.625 L 5.609375 -6.65625 L 4.515625 -6.65625 L 4.515625 -7.34375 L 7.484375 -7.34375 L 7.484375 -6.65625 L 6.5625 -6.65625 L 4.375 -2.875 L 4.375 -0.703125 L 5.484375 -0.703125 L 5.484375 0 Z M 2.03125 0 "/></g></g></g><g fill="#f4f4f4" fill-opacity="1"><g transform="translate(150.46578, 222.437577)"><g><path d="M 2.921875 0.125 C 2.410156 0.125 1.957031 0.0078125 1.5625 -0.21875 C 1.175781 -0.457031 0.878906 -0.785156 0.671875 -1.203125 C 0.460938 -1.617188 0.359375 -2.09375 0.359375 -2.625 C 0.359375 -3.144531 0.457031 -3.613281 0.65625 -4.03125 C 0.863281 -4.445312 1.160156 -4.773438 1.546875 -5.015625 C 1.929688 -5.253906 2.382812 -5.375 2.90625 -5.375 C 3.289062 -5.375 3.644531 -5.304688 3.96875 -5.171875 C 4.289062 -5.035156 4.5625 -4.835938 4.78125 -4.578125 C 5 -4.335938 5.164062 -4.046875 5.28125 -3.703125 C 5.394531 -3.367188 5.453125 -3.007812 5.453125 -2.625 C 5.453125 -2.101562 5.351562 -1.632812 5.15625 -1.21875 C 4.957031 -0.800781 4.664062 -0.472656 4.28125 -0.234375 C 3.894531 0.00390625 3.441406 0.125 2.921875 0.125 Z M 2.921875 -0.484375 C 3.203125 -0.484375 3.445312 -0.566406 3.65625 -0.734375 C 3.875 -0.910156 4.039062 -1.15625 4.15625 -1.46875 C 4.269531 -1.78125 4.328125 -2.144531 4.328125 -2.5625 C 4.328125 -3.007812 4.273438 -3.394531 4.171875 -3.71875 C 4.078125 -4.039062 3.925781 -4.300781 3.71875 -4.5 C 3.5 -4.695312 3.226562 -4.796875 2.90625 -4.796875 C 2.59375 -4.796875 2.320312 -4.695312 2.09375 -4.5 C 1.875 -4.3125 1.71875 -4.046875 1.625 -3.703125 C 1.53125 -3.378906 1.484375 -3 1.484375 -2.5625 C 1.484375 -2.144531 1.539062 -1.78125 1.65625 -1.46875 C 1.769531 -1.15625 1.9375 -0.910156 2.15625 -0.734375 C 2.375 -0.566406 2.628906 -0.484375 2.921875 -0.484375 Z M 2.921875 -0.484375 "/></g></g></g><g fill="#f4f4f4" fill-opacity="1"><g transform="translate(156.269181, 222.437577)"><g><path d="M 4.296875 -0.96875 C 3.890625 -0.238281 3.304688 0.125 2.546875 0.125 C 2.421875 0.125 2.304688 0.113281 2.203125 0.09375 C 2.097656 0.0820312 1.984375 0.0546875 1.859375 0.015625 C 1.617188 -0.0546875 1.398438 -0.234375 1.203125 -0.515625 C 1.109375 -0.648438 1.035156 -0.820312 0.984375 -1.03125 C 0.929688 -1.25 0.90625 -1.492188 0.90625 -1.765625 L 0.90625 -4.6875 L -0.015625 -4.6875 L -0.015625 -5.234375 L 1.953125 -5.234375 L 1.953125 -1.765625 C 1.953125 -1.335938 2.019531 -1.023438 2.15625 -0.828125 C 2.289062 -0.640625 2.503906 -0.546875 2.796875 -0.546875 C 3.003906 -0.546875 3.222656 -0.609375 3.453125 -0.734375 C 3.679688 -0.859375 3.875 -1.019531 4.03125 -1.21875 C 4.1875 -1.425781 4.265625 -1.628906 4.265625 -1.828125 L 4.265625 -4.6875 L 3.375 -4.6875 L 3.375 -5.234375 L 5.328125 -5.234375 L 5.328125 -0.546875 L 6.265625 -0.453125 L 6.265625 0 L 4.296875 0.140625 Z M 4.296875 -0.96875 "/></g></g></g><g fill="#f4f4f4" fill-opacity="1"><g transform="translate(162.546025, 222.437577)"><g><path d="M 0.234375 -0.546875 L 1.1875 -0.546875 L 1.1875 -4.6875 L 0.234375 -4.6875 L 0.234375 -5.234375 L 2.09375 -5.328125 L 2.21875 -4.1875 C 2.300781 -4.457031 2.453125 -4.71875 2.671875 -4.96875 C 2.785156 -5.09375 2.925781 -5.191406 3.09375 -5.265625 C 3.257812 -5.335938 3.4375 -5.375 3.625 -5.375 C 3.800781 -5.375 3.960938 -5.34375 4.109375 -5.28125 C 4.265625 -5.21875 4.382812 -5.117188 4.46875 -4.984375 C 4.550781 -4.859375 4.59375 -4.710938 4.59375 -4.546875 C 4.59375 -4.378906 4.554688 -4.234375 4.484375 -4.109375 C 4.421875 -3.992188 4.332031 -3.898438 4.21875 -3.828125 C 4.101562 -3.765625 3.976562 -3.734375 3.84375 -3.734375 C 3.65625 -3.734375 3.492188 -3.796875 3.359375 -3.921875 C 3.222656 -4.046875 3.15625 -4.203125 3.15625 -4.390625 C 3.15625 -4.453125 3.171875 -4.519531 3.203125 -4.59375 C 3.234375 -4.664062 3.265625 -4.722656 3.296875 -4.765625 L 3.359375 -4.8125 C 3.160156 -4.8125 2.988281 -4.753906 2.84375 -4.640625 C 2.695312 -4.523438 2.578125 -4.363281 2.484375 -4.15625 C 2.316406 -3.75 2.234375 -3.300781 2.234375 -2.8125 L 2.234375 -0.546875 L 3.34375 -0.546875 L 3.34375 0 L 0.234375 0 Z M 0.234375 -0.546875 "/></g></g></g><g fill="#f4f4f4" fill-opacity="1"><g transform="translate(167.202408, 222.437577)"><g/></g></g><g fill="#f4f4f4" fill-opacity="1"><g transform="translate(169.545242, 222.437577)"><g><path d="M 0.25 -0.546875 L 1.203125 -0.546875 L 1.203125 -4.6875 L 0.25 -4.6875 L 0.25 -5.234375 L 1.203125 -5.234375 C 1.203125 -5.816406 1.257812 -6.289062 1.375 -6.65625 C 1.5 -7.019531 1.695312 -7.289062 1.96875 -7.46875 C 2.238281 -7.644531 2.597656 -7.734375 3.046875 -7.734375 C 3.378906 -7.734375 3.671875 -7.679688 3.921875 -7.578125 C 4.179688 -7.484375 4.378906 -7.351562 4.515625 -7.1875 C 4.648438 -7.03125 4.71875 -6.863281 4.71875 -6.6875 C 4.71875 -6.519531 4.679688 -6.367188 4.609375 -6.234375 C 4.546875 -6.109375 4.457031 -6.007812 4.34375 -5.9375 C 4.238281 -5.875 4.117188 -5.84375 3.984375 -5.84375 C 3.859375 -5.84375 3.742188 -5.867188 3.640625 -5.921875 C 3.546875 -5.984375 3.46875 -6.0625 3.40625 -6.15625 C 3.351562 -6.257812 3.328125 -6.375 3.328125 -6.5 C 3.328125 -6.625 3.375 -6.742188 3.46875 -6.859375 C 3.570312 -6.984375 3.703125 -7.0625 3.859375 -7.09375 C 3.796875 -7.164062 3.695312 -7.21875 3.5625 -7.25 C 3.4375 -7.289062 3.3125 -7.3125 3.1875 -7.3125 C 2.875 -7.3125 2.632812 -7.207031 2.46875 -7 C 2.300781 -6.800781 2.21875 -6.488281 2.21875 -6.0625 L 2.21875 -5.234375 L 3.8125 -5.234375 L 3.78125 -4.6875 L 2.25 -4.6875 L 2.25 -0.546875 L 3.46875 -0.546875 L 3.46875 0 L 0.25 0 Z M 0.25 -0.546875 "/></g></g></g><g fill="#f4f4f4" fill-opacity="1"><g transform="translate(173.381634, 222.437577)"><g><path d="M 1.640625 -6.15625 C 1.515625 -6.15625 1.394531 -6.1875 1.28125 -6.25 C 1.164062 -6.320312 1.078125 -6.410156 1.015625 -6.515625 C 0.953125 -6.628906 0.921875 -6.75 0.921875 -6.875 C 0.921875 -7.007812 0.953125 -7.132812 1.015625 -7.25 C 1.078125 -7.363281 1.164062 -7.453125 1.28125 -7.515625 C 1.394531 -7.578125 1.515625 -7.609375 1.640625 -7.609375 C 1.765625 -7.609375 1.882812 -7.570312 2 -7.5 C 2.113281 -7.4375 2.203125 -7.347656 2.265625 -7.234375 C 2.335938 -7.128906 2.375 -7.007812 2.375 -6.875 C 2.375 -6.75 2.335938 -6.628906 2.265625 -6.515625 C 2.203125 -6.410156 2.113281 -6.320312 2 -6.25 C 1.882812 -6.1875 1.765625 -6.15625 1.640625 -6.15625 Z M 0.265625 0 L 0.265625 -0.546875 L 1.21875 -0.546875 L 1.21875 -4.6875 L 0.265625 -4.6875 L 0.265625 -5.234375 L 2.265625 -5.234375 L 2.265625 -0.546875 L 3.21875 -0.546875 L 3.21875 0 Z M 0.265625 0 "/></g></g></g><g fill="#f4f4f4" fill-opacity="1"><g transform="translate(176.627441, 222.437577)"><g><path d="M 0.234375 -0.546875 L 1.1875 -0.546875 L 1.1875 -4.6875 L 0.234375 -4.6875 L 0.234375 -5.234375 L 2.09375 -5.328125 L 2.21875 -4.265625 C 2.3125 -4.492188 2.453125 -4.691406 2.640625 -4.859375 C 2.828125 -5.035156 3.035156 -5.164062 3.265625 -5.25 C 3.492188 -5.332031 3.722656 -5.375 3.953125 -5.375 C 4.054688 -5.375 4.148438 -5.367188 4.234375 -5.359375 C 4.328125 -5.359375 4.425781 -5.335938 4.53125 -5.296875 C 4.644531 -5.265625 4.742188 -5.21875 4.828125 -5.15625 C 4.921875 -5.101562 5.019531 -5.03125 5.125 -4.9375 C 5.21875 -4.84375 5.296875 -4.726562 5.359375 -4.59375 C 5.421875 -4.46875 5.472656 -4.3125 5.515625 -4.125 C 5.554688 -3.9375 5.578125 -3.722656 5.578125 -3.484375 L 5.578125 -0.546875 L 6.578125 -0.546875 L 6.578125 0 L 3.625 0 L 3.625 -0.546875 L 4.515625 -0.546875 L 4.515625 -3.46875 C 4.515625 -3.882812 4.429688 -4.195312 4.265625 -4.40625 C 4.109375 -4.613281 3.882812 -4.71875 3.59375 -4.71875 C 3.40625 -4.71875 3.234375 -4.679688 3.078125 -4.609375 C 2.929688 -4.535156 2.804688 -4.441406 2.703125 -4.328125 C 2.597656 -4.210938 2.507812 -4.070312 2.4375 -3.90625 C 2.363281 -3.75 2.316406 -3.582031 2.296875 -3.40625 C 2.253906 -3.238281 2.234375 -3.054688 2.234375 -2.859375 L 2.234375 -0.546875 L 3.125 -0.546875 L 3.125 0 L 0.234375 0 Z M 0.234375 -0.546875 "/></g></g></g><g fill="#f4f4f4" fill-opacity="1"><g transform="translate(183.260596, 222.437577)"><g><path d="M 1.734375 0.125 C 1.472656 0.125 1.238281 0.078125 1.03125 -0.015625 C 0.820312 -0.109375 0.660156 -0.242188 0.546875 -0.421875 C 0.429688 -0.609375 0.375 -0.820312 0.375 -1.0625 C 0.375 -1.257812 0.414062 -1.4375 0.5 -1.59375 C 0.59375 -1.757812 0.710938 -1.894531 0.859375 -2 C 1.003906 -2.113281 1.164062 -2.21875 1.34375 -2.3125 C 1.53125 -2.414062 1.722656 -2.5 1.921875 -2.5625 C 2.304688 -2.707031 2.65625 -2.867188 2.96875 -3.046875 C 3.125 -3.140625 3.242188 -3.25 3.328125 -3.375 C 3.410156 -3.5 3.453125 -3.628906 3.453125 -3.765625 C 3.453125 -4.128906 3.363281 -4.40625 3.1875 -4.59375 C 3.007812 -4.78125 2.75 -4.875 2.40625 -4.875 C 2.175781 -4.875 1.957031 -4.835938 1.75 -4.765625 C 1.539062 -4.691406 1.378906 -4.585938 1.265625 -4.453125 C 1.472656 -4.453125 1.640625 -4.394531 1.765625 -4.28125 C 1.890625 -4.175781 1.953125 -4.046875 1.953125 -3.890625 C 1.953125 -3.753906 1.921875 -3.632812 1.859375 -3.53125 C 1.796875 -3.425781 1.710938 -3.34375 1.609375 -3.28125 C 1.503906 -3.226562 1.390625 -3.203125 1.265625 -3.203125 C 1.066406 -3.203125 0.894531 -3.269531 0.75 -3.40625 C 0.613281 -3.550781 0.546875 -3.742188 0.546875 -3.984375 C 0.546875 -4.117188 0.585938 -4.265625 0.671875 -4.421875 C 0.765625 -4.578125 0.894531 -4.726562 1.0625 -4.875 C 1.21875 -5.03125 1.4375 -5.148438 1.71875 -5.234375 C 2 -5.328125 2.300781 -5.375 2.625 -5.375 C 2.894531 -5.375 3.140625 -5.34375 3.359375 -5.28125 C 3.578125 -5.226562 3.773438 -5.132812 3.953125 -5 C 4.128906 -4.875 4.265625 -4.691406 4.359375 -4.453125 C 4.453125 -4.222656 4.5 -3.945312 4.5 -3.625 L 4.5 -1.375 C 4.5 -1.238281 4.515625 -1.113281 4.546875 -1 C 4.585938 -0.882812 4.648438 -0.785156 4.734375 -0.703125 C 4.828125 -0.609375 4.941406 -0.5625 5.078125 -0.5625 C 5.492188 -0.5625 5.703125 -0.851562 5.703125 -1.4375 L 5.703125 -2.15625 L 6.234375 -2.15625 L 6.234375 -1.53125 C 6.234375 -1.207031 6.195312 -0.929688 6.125 -0.703125 C 6.0625 -0.472656 5.960938 -0.300781 5.828125 -0.1875 C 5.703125 -0.0703125 5.5625 0.00390625 5.40625 0.046875 C 5.257812 0.0976562 5.082031 0.125 4.875 0.125 C 4.644531 0.125 4.4375 0.0820312 4.25 0 C 4.0625 -0.0820312 3.90625 -0.21875 3.78125 -0.40625 C 3.632812 -0.59375 3.550781 -0.820312 3.53125 -1.09375 C 3.4375 -0.851562 3.296875 -0.640625 3.109375 -0.453125 C 2.929688 -0.273438 2.722656 -0.132812 2.484375 -0.03125 C 2.242188 0.0703125 1.992188 0.125 1.734375 0.125 Z M 2 -0.578125 C 2.207031 -0.578125 2.425781 -0.640625 2.65625 -0.765625 C 2.882812 -0.890625 3.078125 -1.050781 3.234375 -1.25 C 3.378906 -1.4375 3.453125 -1.625 3.453125 -1.8125 L 3.453125 -2.859375 C 3.265625 -2.671875 3.039062 -2.492188 2.78125 -2.328125 C 2.519531 -2.160156 2.28125 -2.03125 2.0625 -1.9375 C 1.875 -1.851562 1.71875 -1.738281 1.59375 -1.59375 C 1.476562 -1.457031 1.421875 -1.300781 1.421875 -1.125 C 1.421875 -0.957031 1.46875 -0.820312 1.5625 -0.71875 C 1.664062 -0.625 1.8125 -0.578125 2 -0.578125 Z M 2 -0.578125 "/></g></g></g><g fill="#f4f4f4" fill-opacity="1"><g transform="translate(189.444709, 222.437577)"><g><path d="M 0.234375 -0.546875 L 1.1875 -0.546875 L 1.1875 -4.6875 L 0.234375 -4.6875 L 0.234375 -5.234375 L 2.09375 -5.328125 L 2.21875 -4.265625 C 2.3125 -4.492188 2.453125 -4.691406 2.640625 -4.859375 C 2.828125 -5.035156 3.035156 -5.164062 3.265625 -5.25 C 3.492188 -5.332031 3.722656 -5.375 3.953125 -5.375 C 4.054688 -5.375 4.148438 -5.367188 4.234375 -5.359375 C 4.328125 -5.359375 4.425781 -5.335938 4.53125 -5.296875 C 4.644531 -5.265625 4.742188 -5.21875 4.828125 -5.15625 C 4.921875 -5.101562 5.019531 -5.03125 5.125 -4.9375 C 5.21875 -4.84375 5.296875 -4.726562 5.359375 -4.59375 C 5.421875 -4.46875 5.472656 -4.3125 5.515625 -4.125 C 5.554688 -3.9375 5.578125 -3.722656 5.578125 -3.484375 L 5.578125 -0.546875 L 6.578125 -0.546875 L 6.578125 0 L 3.625 0 L 3.625 -0.546875 L 4.515625 -0.546875 L 4.515625 -3.46875 C 4.515625 -3.882812 4.429688 -4.195312 4.265625 -4.40625 C 4.109375 -4.613281 3.882812 -4.71875 3.59375 -4.71875 C 3.40625 -4.71875 3.234375 -4.679688 3.078125 -4.609375 C 2.929688 -4.535156 2.804688 -4.441406 2.703125 -4.328125 C 2.597656 -4.210938 2.507812 -4.070312 2.4375 -3.90625 C 2.363281 -3.75 2.316406 -3.582031 2.296875 -3.40625 C 2.253906 -3.238281 2.234375 -3.054688 2.234375 -2.859375 L 2.234375 -0.546875 L 3.125 -0.546875 L 3.125 0 L 0.234375 0 Z M 0.234375 -0.546875 "/></g></g></g><g fill="#f4f4f4" fill-opacity="1"><g transform="translate(196.077864, 222.437577)"><g><path d="M 2.890625 0.125 C 2.546875 0.125 2.21875 0.0664062 1.90625 -0.046875 C 1.59375 -0.171875 1.320312 -0.347656 1.09375 -0.578125 C 0.863281 -0.804688 0.679688 -1.085938 0.546875 -1.421875 C 0.421875 -1.765625 0.359375 -2.128906 0.359375 -2.515625 C 0.359375 -2.898438 0.414062 -3.257812 0.53125 -3.59375 C 0.644531 -3.9375 0.8125 -4.238281 1.03125 -4.5 C 1.25 -4.78125 1.53125 -4.992188 1.875 -5.140625 C 2.21875 -5.296875 2.597656 -5.375 3.015625 -5.375 C 3.242188 -5.375 3.476562 -5.335938 3.71875 -5.265625 C 3.957031 -5.203125 4.179688 -5.101562 4.390625 -4.96875 C 4.597656 -4.832031 4.765625 -4.648438 4.890625 -4.421875 C 5.015625 -4.191406 5.078125 -3.941406 5.078125 -3.671875 C 5.078125 -3.535156 5.046875 -3.40625 4.984375 -3.28125 C 4.921875 -3.164062 4.832031 -3.066406 4.71875 -2.984375 C 4.601562 -2.910156 4.46875 -2.875 4.3125 -2.875 C 4.09375 -2.875 3.910156 -2.9375 3.765625 -3.0625 C 3.628906 -3.195312 3.5625 -3.363281 3.5625 -3.5625 C 3.5625 -3.769531 3.632812 -3.929688 3.78125 -4.046875 C 3.925781 -4.171875 4.101562 -4.234375 4.3125 -4.234375 C 4.195312 -4.410156 4.039062 -4.550781 3.84375 -4.65625 C 3.644531 -4.769531 3.421875 -4.828125 3.171875 -4.828125 C 2.898438 -4.828125 2.648438 -4.765625 2.421875 -4.640625 C 2.191406 -4.523438 2.007812 -4.359375 1.875 -4.140625 C 1.75 -3.941406 1.648438 -3.710938 1.578125 -3.453125 C 1.503906 -3.203125 1.46875 -2.945312 1.46875 -2.6875 C 1.46875 -2.269531 1.53125 -1.90625 1.65625 -1.59375 C 1.789062 -1.289062 1.976562 -1.054688 2.21875 -0.890625 C 2.46875 -0.734375 2.765625 -0.65625 3.109375 -0.65625 C 3.304688 -0.65625 3.492188 -0.695312 3.671875 -0.78125 C 3.859375 -0.863281 4.019531 -0.96875 4.15625 -1.09375 C 4.28125 -1.21875 4.382812 -1.34375 4.46875 -1.46875 C 4.550781 -1.59375 4.609375 -1.707031 4.640625 -1.8125 L 5.1875 -1.625 C 5.101562 -1.269531 4.957031 -0.957031 4.75 -0.6875 C 4.539062 -0.425781 4.273438 -0.222656 3.953125 -0.078125 C 3.640625 0.0546875 3.285156 0.125 2.890625 0.125 Z M 2.890625 0.125 "/></g></g></g><g fill="#f4f4f4" fill-opacity="1"><g transform="translate(201.534716, 222.437577)"><g><path d="M 2.90625 0.125 C 2.519531 0.125 2.160156 0.0507812 1.828125 -0.09375 C 1.503906 -0.238281 1.234375 -0.441406 1.015625 -0.703125 C 0.804688 -0.953125 0.644531 -1.238281 0.53125 -1.5625 C 0.414062 -1.882812 0.359375 -2.210938 0.359375 -2.546875 C 0.359375 -2.847656 0.394531 -3.132812 0.46875 -3.40625 C 0.539062 -3.6875 0.644531 -3.945312 0.78125 -4.1875 C 1.070312 -4.695312 1.472656 -5.046875 1.984375 -5.234375 C 2.242188 -5.328125 2.535156 -5.375 2.859375 -5.375 C 3.179688 -5.375 3.484375 -5.316406 3.765625 -5.203125 C 4.054688 -5.085938 4.3125 -4.921875 4.53125 -4.703125 C 4.75 -4.472656 4.921875 -4.1875 5.046875 -3.84375 C 5.171875 -3.5 5.238281 -3.113281 5.25 -2.6875 L 1.484375 -2.6875 L 1.484375 -2.65625 C 1.484375 -2.082031 1.601562 -1.601562 1.84375 -1.21875 C 1.957031 -1.019531 2.113281 -0.863281 2.3125 -0.75 C 2.519531 -0.644531 2.753906 -0.59375 3.015625 -0.59375 C 3.242188 -0.59375 3.460938 -0.640625 3.671875 -0.734375 C 3.890625 -0.835938 4.078125 -0.976562 4.234375 -1.15625 C 4.390625 -1.34375 4.503906 -1.5625 4.578125 -1.8125 L 5.140625 -1.625 C 5.054688 -1.269531 4.910156 -0.957031 4.703125 -0.6875 C 4.503906 -0.425781 4.25 -0.222656 3.9375 -0.078125 C 3.632812 0.0546875 3.289062 0.125 2.90625 0.125 Z M 4.171875 -3.21875 C 4.160156 -3.53125 4.097656 -3.804688 3.984375 -4.046875 C 3.867188 -4.285156 3.710938 -4.46875 3.515625 -4.59375 C 3.328125 -4.726562 3.113281 -4.796875 2.875 -4.796875 C 2.644531 -4.796875 2.425781 -4.726562 2.21875 -4.59375 C 2.019531 -4.46875 1.859375 -4.285156 1.734375 -4.046875 C 1.609375 -3.804688 1.535156 -3.53125 1.515625 -3.21875 Z M 4.171875 -3.21875 "/></g></g></g><g fill="#f4f4f4" fill-opacity="1"><g transform="translate(207.147756, 222.437577)"><g/></g></g><g fill="#f4f4f4" fill-opacity="1"><g transform="translate(209.490591, 222.437577)"><g><path d="M 2.890625 0.125 C 2.546875 0.125 2.21875 0.0664062 1.90625 -0.046875 C 1.59375 -0.171875 1.320312 -0.347656 1.09375 -0.578125 C 0.863281 -0.804688 0.679688 -1.085938 0.546875 -1.421875 C 0.421875 -1.765625 0.359375 -2.128906 0.359375 -2.515625 C 0.359375 -2.898438 0.414062 -3.257812 0.53125 -3.59375 C 0.644531 -3.9375 0.8125 -4.238281 1.03125 -4.5 C 1.25 -4.78125 1.53125 -4.992188 1.875 -5.140625 C 2.21875 -5.296875 2.597656 -5.375 3.015625 -5.375 C 3.242188 -5.375 3.476562 -5.335938 3.71875 -5.265625 C 3.957031 -5.203125 4.179688 -5.101562 4.390625 -4.96875 C 4.597656 -4.832031 4.765625 -4.648438 4.890625 -4.421875 C 5.015625 -4.191406 5.078125 -3.941406 5.078125 -3.671875 C 5.078125 -3.535156 5.046875 -3.40625 4.984375 -3.28125 C 4.921875 -3.164062 4.832031 -3.066406 4.71875 -2.984375 C 4.601562 -2.910156 4.46875 -2.875 4.3125 -2.875 C 4.09375 -2.875 3.910156 -2.9375 3.765625 -3.0625 C 3.628906 -3.195312 3.5625 -3.363281 3.5625 -3.5625 C 3.5625 -3.769531 3.632812 -3.929688 3.78125 -4.046875 C 3.925781 -4.171875 4.101562 -4.234375 4.3125 -4.234375 C 4.195312 -4.410156 4.039062 -4.550781 3.84375 -4.65625 C 3.644531 -4.769531 3.421875 -4.828125 3.171875 -4.828125 C 2.898438 -4.828125 2.648438 -4.765625 2.421875 -4.640625 C 2.191406 -4.523438 2.007812 -4.359375 1.875 -4.140625 C 1.75 -3.941406 1.648438 -3.710938 1.578125 -3.453125 C 1.503906 -3.203125 1.46875 -2.945312 1.46875 -2.6875 C 1.46875 -2.269531 1.53125 -1.90625 1.65625 -1.59375 C 1.789062 -1.289062 1.976562 -1.054688 2.21875 -0.890625 C 2.46875 -0.734375 2.765625 -0.65625 3.109375 -0.65625 C 3.304688 -0.65625 3.492188 -0.695312 3.671875 -0.78125 C 3.859375 -0.863281 4.019531 -0.96875 4.15625 -1.09375 C 4.28125 -1.21875 4.382812 -1.34375 4.46875 -1.46875 C 4.550781 -1.59375 4.609375 -1.707031 4.640625 -1.8125 L 5.1875 -1.625 C 5.101562 -1.269531 4.957031 -0.957031 4.75 -0.6875 C 4.539062 -0.425781 4.273438 -0.222656 3.953125 -0.078125 C 3.640625 0.0546875 3.285156 0.125 2.890625 0.125 Z M 2.890625 0.125 "/></g></g></g><g fill="#f4f4f4" fill-opacity="1"><g transform="translate(214.947442, 222.437577)"><g><path d="M 0.21875 -0.546875 L 1.125 -0.546875 L 1.125 -6.75 L 0.15625 -6.75 L 0.15625 -7.34375 L 2.171875 -7.34375 L 2.171875 -4.3125 C 2.285156 -4.550781 2.441406 -4.753906 2.640625 -4.921875 C 2.835938 -5.097656 3.046875 -5.21875 3.265625 -5.28125 C 3.460938 -5.34375 3.664062 -5.375 3.875 -5.375 C 4.03125 -5.375 4.164062 -5.363281 4.28125 -5.34375 C 4.40625 -5.320312 4.539062 -5.273438 4.6875 -5.203125 C 4.851562 -5.128906 4.988281 -5.023438 5.09375 -4.890625 C 5.207031 -4.765625 5.300781 -4.585938 5.375 -4.359375 C 5.457031 -4.128906 5.5 -3.851562 5.5 -3.53125 L 5.5 -0.546875 L 6.546875 -0.546875 L 6.546875 0 L 3.5 0 L 3.5 -0.546875 L 4.453125 -0.546875 L 4.453125 -3.5625 C 4.453125 -3.9375 4.378906 -4.21875 4.234375 -4.40625 C 4.097656 -4.59375 3.910156 -4.6875 3.671875 -4.6875 C 3.503906 -4.6875 3.332031 -4.640625 3.15625 -4.546875 C 2.976562 -4.460938 2.816406 -4.34375 2.671875 -4.1875 C 2.515625 -4.019531 2.390625 -3.820312 2.296875 -3.59375 C 2.210938 -3.375 2.171875 -3.148438 2.171875 -2.921875 L 2.171875 -0.546875 L 3.125 -0.546875 L 3.125 0 L 0.21875 0 Z M 0.21875 -0.546875 "/></g></g></g><g fill="#f4f4f4" fill-opacity="1"><g transform="translate(221.561074, 222.437577)"><g><path d="M 1.734375 0.125 C 1.472656 0.125 1.238281 0.078125 1.03125 -0.015625 C 0.820312 -0.109375 0.660156 -0.242188 0.546875 -0.421875 C 0.429688 -0.609375 0.375 -0.820312 0.375 -1.0625 C 0.375 -1.257812 0.414062 -1.4375 0.5 -1.59375 C 0.59375 -1.757812 0.710938 -1.894531 0.859375 -2 C 1.003906 -2.113281 1.164062 -2.21875 1.34375 -2.3125 C 1.53125 -2.414062 1.722656 -2.5 1.921875 -2.5625 C 2.304688 -2.707031 2.65625 -2.867188 2.96875 -3.046875 C 3.125 -3.140625 3.242188 -3.25 3.328125 -3.375 C 3.410156 -3.5 3.453125 -3.628906 3.453125 -3.765625 C 3.453125 -4.128906 3.363281 -4.40625 3.1875 -4.59375 C 3.007812 -4.78125 2.75 -4.875 2.40625 -4.875 C 2.175781 -4.875 1.957031 -4.835938 1.75 -4.765625 C 1.539062 -4.691406 1.378906 -4.585938 1.265625 -4.453125 C 1.472656 -4.453125 1.640625 -4.394531 1.765625 -4.28125 C 1.890625 -4.175781 1.953125 -4.046875 1.953125 -3.890625 C 1.953125 -3.753906 1.921875 -3.632812 1.859375 -3.53125 C 1.796875 -3.425781 1.710938 -3.34375 1.609375 -3.28125 C 1.503906 -3.226562 1.390625 -3.203125 1.265625 -3.203125 C 1.066406 -3.203125 0.894531 -3.269531 0.75 -3.40625 C 0.613281 -3.550781 0.546875 -3.742188 0.546875 -3.984375 C 0.546875 -4.117188 0.585938 -4.265625 0.671875 -4.421875 C 0.765625 -4.578125 0.894531 -4.726562 1.0625 -4.875 C 1.21875 -5.03125 1.4375 -5.148438 1.71875 -5.234375 C 2 -5.328125 2.300781 -5.375 2.625 -5.375 C 2.894531 -5.375 3.140625 -5.34375 3.359375 -5.28125 C 3.578125 -5.226562 3.773438 -5.132812 3.953125 -5 C 4.128906 -4.875 4.265625 -4.691406 4.359375 -4.453125 C 4.453125 -4.222656 4.5 -3.945312 4.5 -3.625 L 4.5 -1.375 C 4.5 -1.238281 4.515625 -1.113281 4.546875 -1 C 4.585938 -0.882812 4.648438 -0.785156 4.734375 -0.703125 C 4.828125 -0.609375 4.941406 -0.5625 5.078125 -0.5625 C 5.492188 -0.5625 5.703125 -0.851562 5.703125 -1.4375 L 5.703125 -2.15625 L 6.234375 -2.15625 L 6.234375 -1.53125 C 6.234375 -1.207031 6.195312 -0.929688 6.125 -0.703125 C 6.0625 -0.472656 5.960938 -0.300781 5.828125 -0.1875 C 5.703125 -0.0703125 5.5625 0.00390625 5.40625 0.046875 C 5.257812 0.0976562 5.082031 0.125 4.875 0.125 C 4.644531 0.125 4.4375 0.0820312 4.25 0 C 4.0625 -0.0820312 3.90625 -0.21875 3.78125 -0.40625 C 3.632812 -0.59375 3.550781 -0.820312 3.53125 -1.09375 C 3.4375 -0.851562 3.296875 -0.640625 3.109375 -0.453125 C 2.929688 -0.273438 2.722656 -0.132812 2.484375 -0.03125 C 2.242188 0.0703125 1.992188 0.125 1.734375 0.125 Z M 2 -0.578125 C 2.207031 -0.578125 2.425781 -0.640625 2.65625 -0.765625 C 2.882812 -0.890625 3.078125 -1.050781 3.234375 -1.25 C 3.378906 -1.4375 3.453125 -1.625 3.453125 -1.8125 L 3.453125 -2.859375 C 3.265625 -2.671875 3.039062 -2.492188 2.78125 -2.328125 C 2.519531 -2.160156 2.28125 -2.03125 2.0625 -1.9375 C 1.875 -1.851562 1.71875 -1.738281 1.59375 -1.59375 C 1.476562 -1.457031 1.421875 -1.300781 1.421875 -1.125 C 1.421875 -0.957031 1.46875 -0.820312 1.5625 -0.71875 C 1.664062 -0.625 1.8125 -0.578125 2 -0.578125 Z M 2 -0.578125 "/></g></g></g><g fill="#f4f4f4" fill-opacity="1"><g transform="translate(227.745186, 222.437577)"><g><path d="M 2.484375 0.125 C 2.054688 0.125 1.695312 0.00390625 1.40625 -0.234375 C 1.25 -0.367188 1.125 -0.539062 1.03125 -0.75 C 0.945312 -0.957031 0.90625 -1.1875 0.90625 -1.4375 L 0.90625 -4.6875 L -0.09375 -4.6875 L -0.09375 -4.921875 C 0.144531 -4.992188 0.363281 -5.125 0.5625 -5.3125 C 0.769531 -5.5 0.941406 -5.710938 1.078125 -5.953125 C 1.191406 -6.171875 1.296875 -6.390625 1.390625 -6.609375 C 1.515625 -6.878906 1.597656 -7.054688 1.640625 -7.140625 C 1.710938 -7.273438 1.773438 -7.34375 1.828125 -7.34375 C 1.859375 -7.34375 1.882812 -7.328125 1.90625 -7.296875 C 1.9375 -7.273438 1.953125 -7.234375 1.953125 -7.171875 L 1.953125 -5.234375 L 3.875 -5.234375 L 3.875 -4.6875 L 1.953125 -4.6875 L 1.953125 -1.40625 C 1.953125 -1.125 2.015625 -0.910156 2.140625 -0.765625 C 2.265625 -0.617188 2.4375 -0.546875 2.65625 -0.546875 C 2.925781 -0.546875 3.125 -0.632812 3.25 -0.8125 C 3.382812 -0.988281 3.453125 -1.285156 3.453125 -1.703125 L 3.453125 -2.40625 L 4.03125 -2.40625 L 4.03125 -1.8125 C 4.03125 -1.363281 3.976562 -1 3.875 -0.71875 C 3.78125 -0.4375 3.617188 -0.222656 3.390625 -0.078125 C 3.160156 0.0546875 2.859375 0.125 2.484375 0.125 Z M 2.484375 0.125 "/></g></g></g></svg>